<svg xmlns="http://www.w3.org/2000/svg" viewBox="0 15.699999809265137 179.39999389648438 29.299999237060547" data-asc="0.9" width="179.39999389648438" height="29.299999237060547"><defs/><g fill="#ff0000"><g transform="translate(0, 0)"><path d="M0 35.60L0 25.10L2 25.10Q2 25.10 2 25.89Q2 26.68 2 27.72Q2 28.77 2 29.56Q2 30.35 2 30.35Q2 30.35 2 30.35Q2 30.35 2 30.35Q2 30.35 2 30.35Q2 30.35 2 30.35Q2 30.35 2 31.14Q2 31.92 2 32.98Q2 34.02 2 34.81Q2 35.60 2 35.60L0 35.60M0 31.05L2 31.05Q2 31.05 2 31.91Q2 32.77 2 34.14Q2 35.50 2 37.02Q2 38.55 2 39.91Q2 41.27 2 42.14Q2 43 2 43Q2 43 2 43Q2 43 2 43Q2 43 2 43Q2 43 2 43Q2 43 2 43Q2 43 2 43Q2 43 2 43Q2 43 2 43Q2 43 2 43Q2 43 2 43Q2 43 2 43Q2 43 2 43Q2 43 2 43Q2 43 2.91 43Q3.83 43 5.26 43Q6.70 43 8.30 43Q9.90 43 11.34 43Q12.78 43 13.69 43Q14.60 43 14.60 43Q14.60 43.48 14.60 43.99Q14.60 44.50 14.60 45Q14.60 45 14.60 45Q14.60 45 14.60 45Q14.60 45 14.60 45Q14.60 45 14.60 45Q14.60 45 14.60 45Q14.60 45 13.55 45Q12.50 45 10.84 45Q9.18 45 7.30 45Q5.42 45 3.76 45Q2.10 45 1.05 45Q0 45 0 45Q0 45 0 45Q0 45 0 45Q0 45 0 45Q0 45 0 45Q0 45 0 43.99Q0 42.98 0 41.39Q0 39.80 0 38.02Q0 36.25 0 34.66Q0 33.08 0 32.06Q0 31.05 0 31.05M0 29.65Q0 29.65 0 28.64Q0 27.63 0 26.04Q0 24.45 0 22.67Q0 20.90 0 19.31Q0 17.72 0 16.71Q0 15.70 0 15.70Q0 15.70 0 15.70Q0 15.70 0 15.70Q0 15.70 0 15.70Q0 15.70 0 15.70Q0 15.70 1.05 15.70Q2.10 15.70 3.76 15.70Q5.42 15.70 7.30 15.70Q9.18 15.70 10.84 15.70Q12.50 15.70 13.55 15.70Q14.60 15.70 14.60 15.70Q14.60 15.70 14.60 15.70Q14.60 15.70 14.60 15.70Q14.60 15.70 14.60 15.70Q14.60 15.70 14.60 15.70Q14.60 15.70 14.60 15.70Q14.60 16.17 14.60 16.69Q14.60 17.20 14.60 17.70Q14.60 17.70 13.69 17.70Q12.78 17.70 11.34 17.70Q9.90 17.70 8.30 17.70Q6.70 17.70 5.26 17.70Q3.83 17.70 2.91 17.70Q2 17.70 2 17.70Q2 17.70 2 17.70Q2 17.70 2 17.70Q2 17.70 2 17.70Q2 17.70 2 17.70Q2 17.70 2 17.70Q2 17.70 2 17.70Q2 17.70 2 17.70Q2 17.70 2 17.70Q2 17.70 2 17.70Q2 17.70 2 17.70Q2 17.70 2 17.70Q2 17.70 2 17.70Q2 17.70 2 17.70Q2 17.70 2 18.56Q2 19.42 2 20.79Q2 22.15 2 23.67Q2 25.20 2 26.56Q2 27.93 2 28.79Q2 29.65 2 29.65L0 29.65M28.50 40.10L26.50 40.10Q26.50 40.10 26.50 38.11Q26.50 36.13 26.50 31.60Q26.50 31.60 26.50 31.48Q26.50 31.35 26.50 31.35Q26.50 31.35 26.50 31.23Q26.50 31.10 26.50 31.10Q26.50 26.18 26.50 23.89Q26.50 21.60 26.50 21.60L28.50 21.60L28.50 40.10M28.50 29.65L26.50 29.65Q26.50 29.65 26.50 28.79Q26.50 27.93 26.50 26.56Q26.50 25.20 26.50 23.67Q26.50 22.15 26.50 20.79Q26.50 19.42 26.50 18.56Q26.50 17.70 26.50 17.70Q26.50 17.70 26.50 17.70Q26.50 17.70 26.50 17.70Q26.50 17.70 26.50 17.70Q26.50 17.70 26.50 17.70Q26.50 17.70 26.50 17.70Q26.50 17.70 26.50 17.70Q26.50 17.70 26.50 17.70Q26.50 17.70 26.50 17.70Q26.50 17.70 26.50 17.70Q26.50 17.70 26.50 17.70Q26.50 17.70 26.50 17.70Q26.50 17.70 26.50 17.70Q26.50 17.70 26.50 17.70Q26.50 17.70 25.59 17.70Q24.68 17.70 23.24 17.70Q21.80 17.70 20.20 17.70Q18.60 17.70 17.16 17.70Q15.73 17.70 14.81 17.70Q13.90 17.70 13.90 17.70Q13.90 17.20 13.90 16.69Q13.90 16.17 13.90 15.70Q13.90 15.70 13.90 15.70Q13.90 15.70 13.90 15.70Q13.90 15.70 13.90 15.70Q13.90 15.70 13.90 15.70Q13.90 15.70 13.90 15.70Q13.90 15.70 14.95 15.70Q16 15.70 17.66 15.70Q19.32 15.70 21.20 15.70Q23.08 15.70 24.74 15.70Q26.40 15.70 27.45 15.70Q28.50 15.70 28.50 15.70Q28.50 15.70 28.50 15.70Q28.50 15.70 28.50 15.70Q28.50 15.70 28.50 15.70Q28.50 15.70 28.50 15.70Q28.50 15.70 28.50 16.71Q28.50 17.72 28.50 19.31Q28.50 20.90 28.50 22.67Q28.50 24.45 28.50 26.04Q28.50 27.63 28.50 28.64Q28.50 29.65 28.50 29.65M13.25 34.35Q13.25 34.35 13.40 34.35Q13.55 34.35 13.78 34.35Q14 34.35 14.25 34.35Q14.53 34.35 14.76 34.35Q15 34.35 15.15 34.35Q15.30 34.35 15.30 34.35Q15.30 34.75 15.30 35.74Q15.30 36.73 15.30 37.95Q15.30 39.17 15.30 40.34Q15.30 41.50 15.30 42.25Q15.30 43 15.30 43Q15.30 43 15.30 43Q15.30 43 15.30 43Q15.30 43 15.30 43Q15.30 43 16.11 43Q16.93 43 18.20 43Q19.48 43 20.90 43Q22.33 43 23.60 43Q24.88 43 25.69 43Q26.50 43 26.50 43Q26.50 43 26.50 43Q26.50 43 26.50 43Q26.50 43 26.50 43Q26.50 43 26.50 42.21Q26.50 41.42 26.50 40.51Q26.50 39.60 26.50 39.25Q26.50 38.98 26.50 38.71Q26.50 38.45 26.50 38.06Q26.50 37.67 26.50 37.08Q26.50 36.48 26.50 35.55Q26.50 35.55 26.50 35.55Q26.50 35.55 26.50 35.55Q26.50 35.55 26.50 35.55Q26.50 35.55 26.50 35.02Q26.50 34.50 26.50 33.80Q26.50 33.10 26.50 32.58Q26.50 32.05 26.50 32.05L28.50 32.05Q28.50 33.27 28.50 34.76Q28.50 36.25 28.50 37.91Q28.50 39.58 28.50 41.36Q28.50 43.15 28.50 45Q28.50 45 28.50 45Q28.50 45 28.50 45Q28.50 45 28.50 45Q28.50 45 28.50 45Q28.50 45 28.50 45Q28.50 45 28.50 45Q28.50 45 28.50 45Q28.50 45 28.50 45Q28.50 45 27.43 45Q26.35 45 24.65 45Q22.95 45 21.03 45Q19.10 45 17.36 45Q15.63 45 14.49 45Q13.35 45 13.25 45Q13.25 45 13.25 45Q13.25 45 13.25 45Q13.25 45 13.25 45Q13.25 45 13.25 45Q13.25 45 13.25 45Q13.25 45 13.25 45Q13.25 45 13.25 45Q13.25 45 13.25 44.70Q13.25 44.40 13.25 44Q13.25 43.60 13.25 43.30Q13.25 43 13.25 43Q13.25 43 13.25 43Q13.25 43 13.25 43Q13.25 43 13.25 43Q13.25 42 13.25 41.01Q13.25 40.02 13.25 39.09Q13.25 38.15 13.25 37.30Q13.25 36.45 13.25 35.70Q13.25 34.95 13.25 34.35M13.45 28.15Q13.35 28.15 13.31 28.14Q13.28 28.13 13.26 28.09Q13.25 28.05 13.25 27.95Q13.25 27.95 13.25 26.93Q13.25 25.90 13.25 24.38Q13.25 22.85 13.25 21.32Q13.25 19.80 13.25 18.77Q13.25 17.75 13.25 17.75Q13.25 17.75 13.25 17.75Q13.25 17.75 13.25 17.75Q13.25 17.75 13.25 17.75Q13.25 17.75 13.25 17.75Q13.25 17.75 13.25 17.75Q13.25 17.65 13.26 17.61Q13.28 17.57 13.31 17.56Q13.35 17.55 13.45 17.55Q13.45 17.55 13.69 17.55Q13.93 17.55 14.25 17.55Q14.58 17.55 14.81 17.55Q15.05 17.55 15.05 17.55Q15.20 17.55 15.23 17.57Q15.25 17.60 15.25 17.75Q15.25 17.75 15.25 17.75Q15.25 17.75 15.25 17.75Q15.25 17.75 15.25 17.75Q15.25 17.75 15.25 17.75Q15.25 17.75 15.25 17.75Q15.25 17.75 15.25 18.77Q15.25 19.80 15.25 21.32Q15.25 22.85 15.25 24.38Q15.25 25.90 15.25 26.93Q15.25 27.95 15.25 27.95Q15.25 28.05 15.24 28.09Q15.23 28.13 15.19 28.14Q15.15 28.15 15.05 28.15Q15.05 28.15 14.65 28.15Q14.25 28.15 13.85 28.15Q13.45 28.15 13.45 28.15M26.50 32.95L26.50 32.95Q26.50 32.95 25.96 32.67Q25.43 32.40 24.63 32Q23.83 31.60 23.03 31.20Q22.23 30.80 21.69 30.52Q21.15 30.25 21.15 30.25Q21.15 30.25 21.15 30.25Q21.15 30.25 21.15 30.25Q21.15 30.25 21.15 30.25Q21.15 30.25 21.15 30.25Q21.15 30.25 21.69 29.96Q22.23 29.67 23.03 29.26Q23.83 28.85 24.63 28.44Q25.43 28.02 25.96 27.74Q26.50 27.45 26.50 27.45L26.50 27.45Q26.70 28.22 26.79 28.86Q26.88 29.50 26.88 30.09Q26.88 30.67 26.79 31.36Q26.70 32.05 26.50 32.95ZM26.50 31.05L28.50 31.05L28.50 39Q28.50 39.08 28.89 39.50Q29.27 39.92 29.85 40.51Q30.43 41.10 31.02 41.67Q31.63 42.25 32.05 42.63Q32.48 43 32.55 43Q32.55 43 32.55 43Q32.55 43 32.55 43Q32.55 43 32.55 43Q32.55 43 33.41 43Q34.27 43 35.55 43Q36.83 43 38.10 43Q39.38 43 40.24 43Q41.10 43 41.10 43Q41.10 43.48 41.10 43.99Q41.10 44.50 41.10 45Q41.10 45 41.10 45Q41.10 45 41.10 45Q41.10 45 41.10 45Q41.10 45 41.10 45Q41.10 45 41.10 45Q40.92 45 39.80 45Q38.67 45 37.01 45Q35.35 45 33.54 45Q31.73 45 30.13 45Q28.52 45 27.51 45Q26.50 45 26.50 45Q26.50 45 26.50 45Q26.50 45 26.50 45Q26.50 45 26.50 45Q26.50 45 26.50 45Q26.50 45 26.50 43.99Q26.50 42.98 26.50 41.39Q26.50 39.80 26.50 38.02Q26.50 36.25 26.50 34.66Q26.50 33.08 26.50 32.06Q26.50 31.05 26.50 31.05M55 31.05Q55 31.05 55 32.06Q55 33.08 55 34.66Q55 36.25 55 38.02Q55 39.80 55 41.39Q55 42.98 55 43.99Q55 45 55 45Q55 45 55 45Q55 45 55 45Q55 45 55 45Q55 45 55 45Q55 45 53.99 45Q52.98 45 51.38 45Q49.78 45 47.96 45Q46.15 45 44.49 45Q42.83 45 41.70 45Q40.58 45 40.40 45Q40.40 45 40.40 45Q40.40 45 40.40 45Q40.40 45 40.40 45Q40.40 45 40.40 45Q40.40 45 40.40 45Q40.40 44.50 40.40 43.99Q40.40 43.48 40.40 43Q40.40 43 41.26 43Q42.13 43 43.40 43Q44.67 43 45.95 43Q47.23 43 48.09 43Q48.95 43 48.95 43Q48.95 43 48.95 43Q48.95 43 48.95 43Q48.95 43 48.95 43Q49.03 43 49.45 42.63Q49.88 42.25 50.48 41.67Q51.08 41.10 51.65 40.51Q52.23 39.92 52.61 39.50Q53 39.08 53 39L53 31.05L55 31.05M26.50 29.65Q26.50 29.65 26.50 28.64Q26.50 27.63 26.50 26.04Q26.50 24.45 26.50 22.67Q26.50 20.90 26.50 19.31Q26.50 17.72 26.50 16.71Q26.50 15.70 26.50 15.70Q26.50 15.70 26.50 15.70Q26.50 15.70 26.50 15.70Q26.50 15.70 26.50 15.70Q26.50 15.70 26.50 15.70Q26.50 15.70 27.51 15.70Q28.52 15.70 30.13 15.70Q31.73 15.70 33.54 15.70Q35.35 15.70 37.01 15.70Q38.67 15.70 39.80 15.70Q40.92 15.70 41.10 15.70Q41.10 15.70 41.10 15.70Q41.10 15.70 41.10 15.70Q41.10 15.70 41.10 15.70Q41.10 15.70 41.10 15.70Q41.10 15.70 41.10 15.70Q41.10 16.17 41.10 16.69Q41.10 17.20 41.10 17.70Q41.10 17.70 40.24 17.70Q39.38 17.70 38.10 17.70Q36.83 17.70 35.55 17.70Q34.27 17.70 33.41 17.70Q32.55 17.70 32.55 17.70Q32.55 17.70 32.55 17.70Q32.55 17.70 32.55 17.70Q32.55 17.70 32.55 17.70Q32.48 17.70 32.05 18.07Q31.63 18.45 31.02 19.02Q30.43 19.60 29.85 20.19Q29.27 20.77 28.89 21.20Q28.50 21.63 28.50 21.70L28.50 29.65L26.50 29.65M55 29.65L53 29.65L53 21.70Q53 21.63 52.61 21.20Q52.23 20.77 51.65 20.19Q51.08 19.60 50.48 19.02Q49.88 18.45 49.45 18.07Q49.03 17.70 48.95 17.70Q48.95 17.70 48.95 17.70Q48.95 17.70 48.95 17.70Q48.95 17.70 48.95 17.70Q48.95 17.70 48.09 17.70Q47.23 17.70 45.95 17.70Q44.67 17.70 43.40 17.70Q42.13 17.70 41.26 17.70Q40.40 17.70 40.40 17.70Q40.40 17.20 40.40 16.69Q40.40 16.17 40.40 15.70Q40.40 15.70 40.40 15.70Q40.40 15.70 40.40 15.70Q40.40 15.70 40.40 15.70Q40.40 15.70 40.40 15.70Q40.40 15.70 40.40 15.70Q40.58 15.70 41.70 15.70Q42.83 15.70 44.49 15.70Q46.15 15.70 47.96 15.70Q49.78 15.70 51.38 15.70Q52.98 15.70 53.99 15.70Q55 15.70 55 15.70Q55 15.70 55 15.70Q55 15.70 55 15.70Q55 15.70 55 15.70Q55 15.70 55 15.70Q55 15.70 55 16.71Q55 17.72 55 19.31Q55 20.90 55 22.67Q55 24.45 55 26.04Q55 27.63 55 28.64Q55 29.65 55 29.65M55 35.60L53 35.60Q53 35.60 53 34.81Q53 34.02 53 32.98Q53 31.92 53 31.14Q53 30.35 53 30.35Q53 30.35 53 30.35Q53 30.35 53 30.35Q53 30.35 53 30.35Q53 30.35 53 30.35Q53 30.35 53 29.56Q53 28.77 53 27.72Q53 26.68 53 25.89Q53 25.10 53 25.10L55 25.10L55 35.60M26.50 35.60L26.50 25.10L28.50 25.10Q28.50 25.10 28.50 25.89Q28.50 26.68 28.50 27.72Q28.50 28.77 28.50 29.56Q28.50 30.35 28.50 30.35Q28.50 30.35 28.50 30.35Q28.50 30.35 28.50 30.35Q28.50 30.35 28.50 30.35Q28.50 30.35 28.50 30.35Q28.50 30.35 28.50 31.14Q28.50 31.92 28.50 32.98Q28.50 34.02 28.50 34.81Q28.50 35.60 28.50 35.60L26.50 35.60M39.75 30.60Q39.75 30.60 39.75 30Q39.75 29.40 39.75 28.52Q39.75 27.65 39.75 26.77Q39.75 25.90 39.75 25.30Q39.75 24.70 39.75 24.70Q39.75 24.70 39.75 24.70Q39.75 24.70 39.75 24.70Q39.75 24.60 39.76 24.56Q39.77 24.52 39.81 24.51Q39.85 24.50 39.95 24.50Q40.23 24.50 40.49 24.50Q40.75 24.50 41.01 24.50Q41.27 24.50 41.55 24.50Q41.65 24.50 41.69 24.51Q41.73 24.52 41.74 24.56Q41.75 24.60 41.75 24.70Q41.75 24.70 41.75 24.70Q41.75 24.70 41.75 24.70Q41.75 24.70 41.75 25.30Q41.75 25.90 41.75 26.77Q41.75 27.65 41.75 28.52Q41.75 29.40 41.75 30Q41.75 30.60 41.75 30.60Q41.75 30.60 41.75 30.99Q41.75 31.38 41.75 31.98Q41.75 32.58 41.75 33.25Q41.75 33.92 41.75 34.52Q41.75 35.13 41.75 35.51Q41.75 35.90 41.75 35.90Q41.75 35.90 41.75 35.90Q41.75 35.90 41.75 35.90Q41.75 36 41.74 36.04Q41.73 36.08 41.69 36.09Q41.65 36.10 41.55 36.10Q41.15 36.10 40.76 36.10Q40.38 36.10 39.95 36.10Q39.85 36.10 39.81 36.09Q39.77 36.08 39.76 36.04Q39.75 36 39.75 35.90Q39.75 35.90 39.75 35.90Q39.75 35.90 39.75 35.90Q39.75 35.90 39.75 35.51Q39.75 35.13 39.75 34.52Q39.75 33.92 39.75 33.25Q39.75 32.58 39.75 31.98Q39.75 31.38 39.75 30.99Q39.75 30.60 39.75 30.60ZM81.50 35.10L79.50 35.10Q79.50 35.10 79.50 34.31Q79.50 33.52 79.50 32.48Q79.50 31.42 79.50 30.64Q79.50 29.85 79.50 29.85Q79.50 29.85 79.50 29.85Q79.50 29.85 79.50 29.85Q79.50 29.85 79.50 29.85Q79.50 29.85 79.50 29.85Q79.50 29.85 79.50 29.06Q79.50 28.27 79.50 27.22Q79.50 26.18 79.50 25.39Q79.50 24.60 79.50 24.60L81.50 24.60L81.50 35.10M53 35.10L53 24.60L55 24.60Q55 24.60 55 25.39Q55 26.18 55 27.22Q55 28.27 55 29.06Q55 29.85 55 29.85Q55 29.85 55 29.85Q55 29.85 55 29.85Q55 29.85 55 29.85Q55 29.85 55 29.85Q55 29.85 55 30.64Q55 31.42 55 32.48Q55 33.52 55 34.31Q55 35.10 55 35.10L53 35.10M81.50 31.05Q81.50 31.05 81.50 32.06Q81.50 33.08 81.50 34.66Q81.50 36.25 81.50 38.02Q81.50 39.80 81.50 41.39Q81.50 42.98 81.50 43.99Q81.50 45 81.50 45Q81.50 45 81.50 45Q81.50 45 81.50 45Q81.50 45 81.50 45Q81.50 45 81.50 45Q81.50 45 80.45 45Q79.40 45 77.74 45Q76.08 45 74.20 45Q72.33 45 70.66 45Q69 45 67.95 45Q66.90 45 66.90 45Q66.90 45 66.90 45Q66.90 45 66.90 45Q66.90 45 66.90 45Q66.90 45 66.90 45Q66.90 45 66.90 45Q66.90 44.50 66.90 43.99Q66.90 43.48 66.90 43Q66.90 43 67.81 43Q68.72 43 70.16 43Q71.60 43 73.20 43Q74.80 43 76.24 43Q77.67 43 78.59 43Q79.50 43 79.50 43Q79.50 43 79.50 43Q79.50 43 79.50 43Q79.50 43 79.50 43Q79.50 43 79.50 43Q79.50 43 79.50 43Q79.50 43 79.50 43Q79.50 43 79.50 43Q79.50 43 79.50 43Q79.50 43 79.50 43Q79.50 43 79.50 43Q79.50 43 79.50 43Q79.50 43 79.50 43Q79.50 43 79.50 43Q79.50 43 79.50 42.14Q79.50 41.27 79.50 39.91Q79.50 38.55 79.50 37.02Q79.50 35.50 79.50 34.14Q79.50 32.77 79.50 31.91Q79.50 31.05 79.50 31.05L81.50 31.05M53 31.05L55 31.05Q55 31.05 55 31.91Q55 32.77 55 34.14Q55 35.50 55 37.02Q55 38.55 55 39.91Q55 41.27 55 42.14Q55 43 55 43Q55 43 55 43Q55 43 55 43Q55 43 55 43Q55 43 55 43Q55 43 55 43Q55 43 55 43Q55 43 55 43Q55 43 55 43Q55 43 55 43Q55 43 55 43Q55 43 55 43Q55 43 55 43Q55 43 55 43Q55 43 55.91 43Q56.83 43 58.26 43Q59.70 43 61.30 43Q62.90 43 64.34 43Q65.78 43 66.69 43Q67.60 43 67.60 43Q67.60 43.48 67.60 43.99Q67.60 44.50 67.60 45Q67.60 45 67.60 45Q67.60 45 67.60 45Q67.60 45 67.60 45Q67.60 45 67.60 45Q67.60 45 67.60 45Q67.60 45 66.55 45Q65.50 45 63.84 45Q62.17 45 60.30 45Q58.42 45 56.76 45Q55.10 45 54.05 45Q53 45 53 45Q53 45 53 45Q53 45 53 45Q53 45 53 45Q53 45 53 45Q53 45 53 43.99Q53 42.98 53 41.39Q53 39.80 53 38.02Q53 36.25 53 34.66Q53 33.08 53 32.06Q53 31.05 53 31.05M81.50 29.65L79.50 29.65Q79.50 29.65 79.50 28.79Q79.50 27.93 79.50 26.56Q79.50 25.20 79.50 23.67Q79.50 22.15 79.50 20.79Q79.50 19.42 79.50 18.56Q79.50 17.70 79.50 17.70Q79.50 17.70 79.50 17.70Q79.50 17.70 79.50 17.70Q79.50 17.70 79.50 17.70Q79.50 17.70 79.50 17.70Q79.50 17.70 79.50 17.70Q79.50 17.70 79.50 17.70Q79.50 17.70 79.50 17.70Q79.50 17.70 79.50 17.70Q79.50 17.70 79.50 17.70Q79.50 17.70 79.50 17.70Q79.50 17.70 79.50 17.70Q79.50 17.70 79.50 17.70Q79.50 17.70 79.50 17.70Q79.50 17.70 78.59 17.70Q77.67 17.70 76.24 17.70Q74.80 17.70 73.20 17.70Q71.60 17.70 70.16 17.70Q68.72 17.70 67.81 17.70Q66.90 17.70 66.90 17.70Q66.90 17.20 66.90 16.69Q66.90 16.17 66.90 15.70Q66.90 15.70 66.90 15.70Q66.90 15.70 66.90 15.70Q66.90 15.70 66.90 15.70Q66.90 15.70 66.90 15.70Q66.90 15.70 66.90 15.70Q66.90 15.70 67.95 15.70Q69 15.70 70.66 15.70Q72.33 15.70 74.20 15.70Q76.08 15.70 77.74 15.70Q79.40 15.70 80.45 15.70Q81.50 15.70 81.50 15.70Q81.50 15.70 81.50 15.70Q81.50 15.70 81.50 15.70Q81.50 15.70 81.50 15.70Q81.50 15.70 81.50 15.70Q81.50 15.70 81.50 16.71Q81.50 17.72 81.50 19.31Q81.50 20.90 81.50 22.67Q81.50 24.45 81.50 26.04Q81.50 27.63 81.50 28.64Q81.50 29.65 81.50 29.65M53 29.65Q53 29.65 53 28.64Q53 27.63 53 26.04Q53 24.45 53 22.67Q53 20.90 53 19.31Q53 17.72 53 16.71Q53 15.70 53 15.70Q53 15.70 53 15.70Q53 15.70 53 15.70Q53 15.70 53 15.70Q53 15.70 53 15.70Q53 15.70 54.05 15.70Q55.10 15.70 56.76 15.70Q58.42 15.70 60.30 15.70Q62.17 15.70 63.84 15.70Q65.50 15.70 66.55 15.70Q67.60 15.70 67.60 15.70Q67.60 15.70 67.60 15.70Q67.60 15.70 67.60 15.70Q67.60 15.70 67.60 15.70Q67.60 15.70 67.60 15.70Q67.60 15.70 67.60 15.70Q67.60 16.17 67.60 16.69Q67.60 17.20 67.60 17.70Q67.60 17.70 66.69 17.70Q65.78 17.70 64.34 17.70Q62.90 17.70 61.30 17.70Q59.70 17.70 58.26 17.70Q56.83 17.70 55.91 17.70Q55 17.70 55 17.70Q55 17.70 55 17.70Q55 17.70 55 17.70Q55 17.70 55 17.70Q55 17.70 55 17.70Q55 17.70 55 17.70Q55 17.70 55 17.70Q55 17.70 55 17.70Q55 17.70 55 17.70Q55 17.70 55 17.70Q55 17.70 55 17.70Q55 17.70 55 17.70Q55 17.70 55 17.70Q55 17.70 55 17.70Q55 17.70 55 18.56Q55 19.42 55 20.79Q55 22.15 55 23.67Q55 25.20 55 26.56Q55 27.93 55 28.79Q55 29.65 55 29.65L53 29.65M67.88 43.05Q67.88 43.05 67.88 43.05Q67.88 43.05 67.88 43.05Q67.88 43.05 67.88 43.05Q67.88 43.05 67.88 43.05Q67.88 43.05 67.88 43.05Q67.88 43.05 67.88 43.05Q67.88 43.05 67.88 43.05Q67.88 43.05 67.88 43.05Q67.88 43.05 67.71 43.27Q67.55 43.50 67.38 43.73Q67.20 43.95 67.20 43.95Q67.20 43.95 67.20 43.95Q67.20 43.95 67.20 43.95Q67.20 43.95 67.20 43.95Q67.20 43.95 66.88 43.73Q66.55 43.50 66.24 43.29Q65.92 43.08 65.92 43.08Q65.92 43.08 65.92 43.08Q65.92 43.08 65.92 43.08Q65.92 43.08 65.92 43.08Q65.92 43.08 65.92 43.08Q65.92 43.08 65.92 43.08Q65.92 43.08 65.92 43.08Q65.92 43.08 65.92 43.08Q65.92 43.08 65.71 42.20Q65.50 41.33 65.17 39.95Q64.85 38.58 64.49 37.02Q64.13 35.48 63.80 34.10Q63.48 32.73 63.26 31.85Q63.05 30.98 63.05 30.98Q63.05 30.98 63.05 30.98Q63.05 30.98 63.05 30.98Q63.05 30.98 63.05 30.98Q63.05 30.98 63.51 30.85Q63.98 30.73 64.44 30.61Q64.90 30.50 64.90 30.50Q64.90 30.50 64.90 30.50Q64.90 30.50 64.90 30.50Q64.90 30.50 64.90 30.50Q64.90 30.50 64.90 30.50Q64.90 30.50 64.90 30.50Q64.90 30.50 64.90 30.50Q64.90 30.50 65.11 31.41Q65.33 32.33 65.66 33.75Q66 35.17 66.39 36.77Q66.78 38.38 67.11 39.80Q67.45 41.23 67.66 42.14Q67.88 43.05 67.88 43.05M66.67 17.60Q66.67 17.60 66.67 17.60Q66.67 17.60 66.67 17.60Q66.67 17.60 66.67 17.60Q66.67 17.60 66.67 17.60Q66.67 17.60 66.67 17.60Q66.67 17.60 66.67 17.60Q66.67 17.60 66.67 17.60Q66.67 17.60 66.67 17.60Q66.67 17.60 66.85 17.38Q67.03 17.15 67.19 16.92Q67.35 16.70 67.35 16.70Q67.35 16.70 67.35 16.70Q67.35 16.70 67.35 16.70Q67.35 16.70 67.35 16.70Q67.35 16.70 67.66 16.91Q67.97 17.13 68.30 17.35Q68.63 17.57 68.63 17.57Q68.63 17.57 68.63 17.57Q68.63 17.57 68.63 17.57Q68.63 17.57 68.63 17.57Q68.63 17.57 68.63 17.57Q68.63 17.57 68.63 17.57Q68.63 17.57 68.63 17.57Q68.63 17.57 68.63 17.57Q68.63 17.57 68.84 18.45Q69.05 19.32 69.38 20.70Q69.70 22.07 70.06 23.63Q70.42 25.17 70.75 26.55Q71.08 27.93 71.29 28.80Q71.50 29.67 71.50 29.67Q71.50 29.67 71.50 29.67Q71.50 29.67 71.50 29.67Q71.50 29.67 71.50 29.67Q71.50 29.67 71.04 29.79Q70.58 29.90 70.11 30.02Q69.65 30.15 69.65 30.15Q69.65 30.15 69.65 30.15Q69.65 30.15 69.65 30.15Q69.65 30.15 69.65 30.15Q69.65 30.15 69.65 30.15Q69.65 30.15 69.65 30.15Q69.65 30.15 69.65 30.15Q69.65 30.15 69.44 29.24Q69.22 28.32 68.89 26.90Q68.55 25.47 68.16 23.88Q67.78 22.27 67.44 20.85Q67.10 19.42 66.89 18.51Q66.67 17.60 66.67 17.60ZM106.10 31.05Q106.10 32.17 106.10 33.65Q106.10 35.13 106.10 36.69Q106.10 38.25 106.10 39.73Q106.10 41.20 106.10 42.40Q106.10 43.60 106.10 44.30Q106.10 45 106.10 45Q106.10 45 106.10 45Q106.10 45 106.10 45Q106.10 45 106.10 45Q106.10 45 106.10 45Q106.10 45 105.11 45Q104.13 45 102.59 45Q101.05 45 99.30 45Q97.55 45 96.01 45Q94.47 45 93.49 45Q92.50 45 92.50 45Q92.50 45 92.50 45Q92.50 45 92.50 45Q92.50 45 92.50 45Q92.50 45 92.50 45Q92.50 45 92.50 45Q92.50 44.50 92.50 43.99Q92.50 43.48 92.50 43Q92.63 43 93.33 43Q94.03 43 95.04 43Q96.05 43 97.09 43Q98.13 43 98.94 43Q99.75 43 100.05 43Q100.05 43 100.05 43Q100.05 43 100.05 43Q100.05 43 100.05 43Q100.05 43 100.05 43Q100.13 43 100.55 42.63Q100.97 42.25 101.58 41.67Q102.17 41.10 102.75 40.51Q103.33 39.92 103.71 39.50Q104.10 39.08 104.10 39L104.10 31.05L106.10 31.05M79.50 29.65Q79.50 28.50 79.50 27.05Q79.50 25.60 79.50 24.02Q79.50 22.45 79.50 20.97Q79.50 19.50 79.50 18.30Q79.50 17.10 79.50 16.40Q79.50 15.70 79.50 15.70Q79.50 15.70 79.50 15.70Q79.50 15.70 79.50 15.70Q79.50 15.70 79.50 15.70Q79.50 15.70 79.50 15.70Q79.50 15.70 80.49 15.70Q81.47 15.70 83.01 15.70Q84.55 15.70 86.30 15.70Q88.05 15.70 89.59 15.70Q91.13 15.70 92.11 15.70Q93.10 15.70 93.10 15.70Q93.10 15.70 93.10 15.70Q93.10 15.70 93.10 15.70Q93.10 15.70 93.10 15.70Q93.10 15.70 93.10 15.70Q93.10 15.70 93.10 15.70Q93.10 16.17 93.10 16.69Q93.10 17.20 93.10 17.70Q92.97 17.70 92.28 17.70Q91.58 17.70 90.56 17.70Q89.55 17.70 88.51 17.70Q87.47 17.70 86.66 17.70Q85.85 17.70 85.55 17.70Q85.55 17.70 85.55 17.70Q85.55 17.70 85.55 17.70Q85.55 17.70 85.55 17.70Q85.55 17.70 85.55 17.70Q85.47 17.70 85.05 18.07Q84.63 18.45 84.03 19.02Q83.42 19.60 82.85 20.19Q82.28 20.77 81.89 21.20Q81.50 21.63 81.50 21.70L81.50 29.65L79.50 29.65M79.50 32.55L81.50 32.55Q81.50 32.55 81.50 33.60Q81.50 34.65 81.50 36.21Q81.50 37.77 81.50 39.34Q81.50 40.90 81.50 41.95Q81.50 43 81.50 43Q81.50 43 81.50 43Q81.50 43 81.50 43Q81.50 43 81.50 43Q81.50 43 81.50 43Q81.50 43 81.50 43Q81.50 43 81.50 43Q81.50 43 81.50 43Q81.50 43 81.50 43Q81.50 43 81.50 43Q81.50 43 81.50 43Q81.50 43 81.50 43Q81.50 43 82.67 43Q83.85 43 85.58 43Q87.30 43 89.03 43Q90.75 43 91.92 43Q93.10 43 93.10 43Q93.10 43.48 93.10 43.99Q93.10 44.50 93.10 45Q93.10 45 93.10 45Q93.10 45 93.10 45Q93.10 45 93.10 45Q93.10 45 93.10 45Q93.10 45 93.10 45Q93.10 45 92.11 45Q91.13 45 89.59 45Q88.05 45 86.30 45Q84.55 45 83.01 45Q81.47 45 80.49 45Q79.50 45 79.50 45Q79.50 45 79.50 45Q79.50 45 79.50 45Q79.50 45 79.50 45Q79.50 45 79.50 45Q79.50 45 79.50 44.10Q79.50 43.20 79.50 41.79Q79.50 40.38 79.50 38.77Q79.50 37.17 79.50 35.76Q79.50 34.35 79.50 33.45Q79.50 32.55 79.50 32.55M106.10 28.15L104.10 28.15Q104.10 28.15 104.10 27.10Q104.10 26.05 104.10 24.49Q104.10 22.92 104.10 21.36Q104.10 19.80 104.10 18.75Q104.10 17.70 104.10 17.70Q104.10 17.70 104.10 17.70Q104.10 17.70 104.10 17.70Q104.10 17.70 104.10 17.70Q104.10 17.70 104.10 17.70Q104.10 17.70 104.10 17.70Q104.10 17.70 104.10 17.70Q104.10 17.70 104.10 17.70Q104.10 17.70 104.10 17.70Q104.10 17.70 104.10 17.70Q104.10 17.70 104.10 17.70Q104.10 17.70 104.10 17.70Q104.10 17.70 102.92 17.70Q101.75 17.70 100.03 17.70Q98.30 17.70 96.58 17.70Q94.85 17.70 93.67 17.70Q92.50 17.70 92.50 17.70Q92.50 17.20 92.50 16.69Q92.50 16.17 92.50 15.70Q92.50 15.70 92.50 15.70Q92.50 15.70 92.50 15.70Q92.50 15.70 92.50 15.70Q92.50 15.70 92.50 15.70Q92.50 15.70 92.50 15.70Q92.50 15.70 93.49 15.70Q94.47 15.70 96.01 15.70Q97.55 15.70 99.30 15.70Q101.05 15.70 102.59 15.70Q104.13 15.70 105.11 15.70Q106.10 15.70 106.10 15.70Q106.10 15.70 106.10 15.70Q106.10 15.70 106.10 15.70Q106.10 15.70 106.10 15.70Q106.10 15.70 106.10 15.70Q106.10 15.70 106.10 16.60Q106.10 17.50 106.10 18.91Q106.10 20.32 106.10 21.92Q106.10 23.52 106.10 24.94Q106.10 26.35 106.10 27.25Q106.10 28.15 106.10 28.15M106.10 20.65L106.10 39.15L104.10 39.15Q104.10 39.15 104.10 36.85Q104.10 34.55 104.10 29.65Q104.10 29.65 104.10 29.52Q104.10 29.40 104.10 29.40Q104.10 29.40 104.10 29.27Q104.10 29.15 104.10 29.15Q104.10 24.60 104.10 22.63Q104.10 20.65 104.10 20.65L106.10 20.65M79.50 40.10L79.50 21.60L81.50 21.60Q81.50 21.60 81.50 23.89Q81.50 26.18 81.50 31.10Q81.50 31.10 81.50 31.23Q81.50 31.35 81.50 31.35Q81.50 31.35 81.50 31.48Q81.50 31.60 81.50 31.60Q81.50 36.13 81.50 38.11Q81.50 40.10 81.50 40.10L79.50 40.10M80.55 33.55L80.55 29.90L81.50 29.90Q81.50 29.90 81.50 30.14Q81.50 30.38 81.50 30.61Q81.50 30.85 81.50 30.85Q81.50 30.85 82.54 31Q83.58 31.15 85.11 31.38Q86.65 31.60 88.19 31.82Q89.72 32.05 90.76 32.20Q91.80 32.35 91.80 32.35Q91.80 32.35 91.79 32.46Q91.78 32.58 91.74 32.80Q91.70 33.02 91.65 33.35Q91.60 33.67 91.56 33.89Q91.53 34.10 91.51 34.20Q91.50 34.30 91.50 34.30Q91.50 34.30 90.49 34.15Q89.47 34 87.99 33.79Q86.50 33.58 85.01 33.36Q83.53 33.15 82.51 33Q81.50 32.85 81.50 32.85Q81.50 32.85 81.50 33.02Q81.50 33.20 81.50 33.38Q81.50 33.55 81.50 33.55L80.55 33.55M105.05 26.80L105.05 30.45L104.10 30.45Q104.10 30.45 104.10 30.21Q104.10 29.98 104.10 29.74Q104.10 29.50 104.10 29.50Q104.10 29.50 103.06 29.35Q102.03 29.20 100.49 28.97Q98.95 28.75 97.41 28.52Q95.88 28.30 94.84 28.15Q93.80 28 93.80 28Q93.80 28 93.81 27.89Q93.83 27.77 93.86 27.55Q93.90 27.32 93.95 27Q94 26.68 94.04 26.46Q94.08 26.25 94.09 26.15Q94.10 26.05 94.10 26.05Q94.10 26.05 95.11 26.20Q96.13 26.35 97.61 26.56Q99.10 26.77 100.59 26.99Q102.08 27.20 103.09 27.35Q104.10 27.50 104.10 27.50Q104.10 27.50 104.10 27.32Q104.10 27.15 104.10 26.97Q104.10 26.80 104.10 26.80L105.05 26.80ZM119.65 32.55Q119.65 33.58 119.65 34.79Q119.65 36 119.65 37.31Q119.65 38.63 119.65 39.96Q119.65 41.30 119.65 42.58Q119.65 43.85 119.65 45Q119.65 45 118.86 45Q118.07 45 116.91 45Q115.75 45 114.59 45Q113.42 45 112.64 45Q111.85 45 111.85 45Q111.85 45 111.85 45Q111.85 45 111.85 45Q111.85 45 111.85 45Q111.85 45 111.85 45Q111.67 44.63 111.67 44Q111.67 43.38 111.85 43Q112.38 43 113.02 43Q113.67 43 114.41 43Q115.15 43 115.97 43Q116.80 43 117.65 43Q117.65 43 117.65 43Q117.65 43 117.65 43Q117.65 43 117.65 43Q117.65 43 117.65 43Q117.65 43 117.65 43Q117.65 43 117.65 43Q117.65 43 117.65 43Q117.65 43 117.65 43Q117.65 43 117.65 41.95Q117.65 40.90 117.65 39.34Q117.65 37.77 117.65 36.21Q117.65 34.65 117.65 33.60Q117.65 32.55 117.65 32.55L119.65 32.55M104.10 32.55L106.10 32.55Q106.10 32.55 106.10 33.60Q106.10 34.65 106.10 36.21Q106.10 37.77 106.10 39.34Q106.10 40.90 106.10 41.95Q106.10 43 106.10 43Q106.10 43 106.10 43Q106.10 43 106.10 43Q106.10 43 106.10 43Q106.10 43 106.10 43Q106.10 43 106.10 43Q106.10 43 106.10 43Q106.10 43 106.10 43Q106.10 43 106.10 43Q106.97 43 107.79 43Q108.60 43 109.34 43Q110.07 43 110.72 43Q111.38 43 111.90 43Q112.10 43.38 112.10 44Q112.10 44.63 111.90 45Q111.90 45 111.90 45Q111.90 45 111.90 45Q111.90 45 111.90 45Q111.90 45 111.90 45Q111.90 45 111.11 45Q110.32 45 109.16 45Q108 45 106.84 45Q105.67 45 104.89 45Q104.10 45 104.10 45Q104.10 43.85 104.10 42.58Q104.10 41.30 104.10 39.96Q104.10 38.63 104.10 37.31Q104.10 36 104.10 34.79Q104.10 33.58 104.10 32.55M119.65 35.60L117.65 35.60Q117.65 35.60 117.65 34.81Q117.65 34.02 117.65 32.98Q117.65 31.92 117.65 31.14Q117.65 30.35 117.65 30.35Q117.65 30.35 117.65 30.35Q117.65 30.35 117.65 30.35Q117.65 30.35 117.65 30.35Q117.65 30.35 117.65 30.35Q117.65 30.35 117.65 29.56Q117.65 28.77 117.65 27.72Q117.65 26.68 117.65 25.89Q117.65 25.10 117.65 25.10L119.65 25.10L119.65 35.60M104.10 35.60L104.10 25.10L106.10 25.10Q106.10 25.10 106.10 25.89Q106.10 26.68 106.10 27.72Q106.10 28.77 106.10 29.56Q106.10 30.35 106.10 30.35Q106.10 30.35 106.10 30.35Q106.10 30.35 106.10 30.35Q106.10 30.35 106.10 30.35Q106.10 30.35 106.10 30.35Q106.10 30.35 106.10 31.14Q106.10 31.92 106.10 32.98Q106.10 34.02 106.10 34.81Q106.10 35.60 106.10 35.60L104.10 35.60M119.65 28.15L117.65 28.15Q117.65 28.15 117.65 27.10Q117.65 26.05 117.65 24.49Q117.65 22.92 117.65 21.36Q117.65 19.80 117.65 18.75Q117.65 17.70 117.65 17.70Q117.65 17.70 117.65 17.70Q117.65 17.70 117.65 17.70Q117.65 17.70 117.65 17.70Q117.65 17.70 117.65 17.70Q117.65 17.70 117.65 17.70Q117.65 17.70 117.65 17.70Q117.65 17.70 117.65 17.70Q117.65 17.70 117.65 17.70Q116.80 17.70 115.97 17.70Q115.15 17.70 114.41 17.70Q113.67 17.70 113.02 17.70Q112.38 17.70 111.85 17.70Q111.67 17.32 111.67 16.70Q111.67 16.07 111.85 15.70Q111.85 15.70 111.85 15.70Q111.85 15.70 111.85 15.70Q111.85 15.70 111.85 15.70Q111.85 15.70 111.85 15.70Q111.85 15.70 112.64 15.70Q113.42 15.70 114.59 15.70Q115.75 15.70 116.91 15.70Q118.07 15.70 118.86 15.70Q119.65 15.70 119.65 15.70Q119.65 16.85 119.65 18.13Q119.65 19.40 119.65 20.74Q119.65 22.07 119.65 23.39Q119.65 24.70 119.65 25.91Q119.65 27.13 119.65 28.15M104.10 28.15Q104.10 27.13 104.10 25.91Q104.10 24.70 104.10 23.39Q104.10 22.07 104.10 20.74Q104.10 19.40 104.10 18.13Q104.10 16.85 104.10 15.70Q104.10 15.70 104.89 15.70Q105.67 15.70 106.84 15.70Q108 15.70 109.16 15.70Q110.32 15.70 111.11 15.70Q111.90 15.70 111.90 15.70Q111.90 15.70 111.90 15.70Q111.90 15.70 111.90 15.70Q111.90 15.70 111.90 15.70Q111.90 15.70 111.90 15.70Q112.10 16.07 112.10 16.70Q112.10 17.32 111.90 17.70Q111.38 17.70 110.72 17.70Q110.07 17.70 109.34 17.70Q108.60 17.70 107.79 17.70Q106.97 17.70 106.10 17.70Q106.10 17.70 106.10 17.70Q106.10 17.70 106.10 17.70Q106.10 17.70 106.10 17.70Q106.10 17.70 106.10 17.70Q106.10 17.70 106.10 17.70Q106.10 17.70 106.10 17.70Q106.10 17.70 106.10 17.70Q106.10 17.70 106.10 17.70Q106.10 17.70 106.10 18.75Q106.10 19.80 106.10 21.36Q106.10 22.92 106.10 24.49Q106.10 26.05 106.10 27.10Q106.10 28.15 106.10 28.15L104.10 28.15ZM117.65 32.55L119.65 32.55Q119.65 32.55 119.65 33.60Q119.65 34.65 119.65 36.21Q119.65 37.77 119.65 39.34Q119.65 40.90 119.65 41.95Q119.65 43 119.65 43Q119.65 43 119.65 43Q119.65 43 119.65 43Q119.65 43 119.65 43Q119.65 43 119.65 43Q119.65 43 119.65 43Q119.65 43 119.65 43Q119.65 43 119.65 43Q119.65 43 119.65 43Q119.65 43 119.65 43Q119.65 43 119.65 43Q119.65 43 119.65 43Q119.65 43 120.82 43Q122.00 43 123.72 43Q125.45 43 127.17 43Q128.90 43 130.07 43Q131.25 43 131.25 43Q131.25 43.48 131.25 43.99Q131.25 44.50 131.25 45Q131.25 45 131.25 45Q131.25 45 131.25 45Q131.25 45 131.25 45Q131.25 45 131.25 45Q131.25 45 131.25 45Q131.25 45 130.26 45Q129.27 45 127.74 45Q126.20 45 124.45 45Q122.70 45 121.16 45Q119.62 45 118.64 45Q117.65 45 117.65 45Q117.65 45 117.65 45Q117.65 45 117.65 45Q117.65 45 117.65 45Q117.65 45 117.65 45Q117.65 45 117.65 44.10Q117.65 43.20 117.65 41.79Q117.65 40.38 117.65 38.77Q117.65 37.17 117.65 35.76Q117.65 34.35 117.65 33.45Q117.65 32.55 117.65 32.55M144.25 28.15L142.25 28.15Q142.25 28.15 142.25 27.10Q142.25 26.05 142.25 24.49Q142.25 22.92 142.25 21.36Q142.25 19.80 142.25 18.75Q142.25 17.70 142.25 17.70Q142.25 17.70 142.25 17.70Q142.25 17.70 142.25 17.70Q142.25 17.70 142.25 17.70Q142.25 17.70 142.25 17.70Q142.25 17.70 142.25 17.70Q142.25 17.70 142.25 17.70Q142.25 17.70 142.25 17.70Q142.25 17.70 142.25 17.70Q142.25 17.70 142.25 17.70Q142.25 17.70 142.25 17.70Q142.25 17.70 142.25 17.70Q142.25 17.70 141.07 17.70Q139.90 17.70 138.17 17.70Q136.45 17.70 134.72 17.70Q133 17.70 131.82 17.70Q130.65 17.70 130.65 17.70Q130.65 17.20 130.65 16.69Q130.65 16.17 130.65 15.70Q130.65 15.70 130.65 15.70Q130.65 15.70 130.65 15.70Q130.65 15.70 130.65 15.70Q130.65 15.70 130.65 15.70Q130.65 15.70 130.65 15.70Q130.65 15.70 131.64 15.70Q132.63 15.70 134.16 15.70Q135.70 15.70 137.45 15.70Q139.20 15.70 140.74 15.70Q142.27 15.70 143.26 15.70Q144.25 15.70 144.25 15.70Q144.25 15.70 144.25 15.70Q144.25 15.70 144.25 15.70Q144.25 15.70 144.25 15.70Q144.25 15.70 144.25 15.70Q144.25 15.70 144.25 16.60Q144.25 17.50 144.25 18.91Q144.25 20.32 144.25 21.92Q144.25 23.52 144.25 24.94Q144.25 26.35 144.25 27.25Q144.25 28.15 144.25 28.15M144.25 32.55Q144.25 32.55 144.25 33.45Q144.25 34.35 144.25 35.76Q144.25 37.17 144.25 38.77Q144.25 40.38 144.25 41.79Q144.25 43.20 144.25 44.10Q144.25 45 144.25 45Q144.25 45 144.25 45Q144.25 45 144.25 45Q144.25 45 144.25 45Q144.25 45 144.25 45Q144.25 45 143.26 45Q142.27 45 140.74 45Q139.20 45 137.45 45Q135.70 45 134.16 45Q132.63 45 131.64 45Q130.65 45 130.65 45Q130.65 45 130.65 45Q130.65 45 130.65 45Q130.65 45 130.65 45Q130.65 45 130.65 45Q130.65 45 130.65 45Q130.65 44.50 130.65 43.99Q130.65 43.48 130.65 43Q130.65 43 131.82 43Q133 43 134.72 43Q136.45 43 138.17 43Q139.90 43 141.07 43Q142.25 43 142.25 43Q142.25 43 142.25 43Q142.25 43 142.25 43Q142.25 43 142.25 43Q142.25 43 142.25 43Q142.25 43 142.25 43Q142.25 43 142.25 43Q142.25 43 142.25 43Q142.25 43 142.25 43Q142.25 43 142.25 43Q142.25 43 142.25 43Q142.25 43 142.25 43Q142.25 43 142.25 41.95Q142.25 40.90 142.25 39.34Q142.25 37.77 142.25 36.21Q142.25 34.65 142.25 33.60Q142.25 32.55 142.25 32.55L144.25 32.55M117.65 28.15Q117.65 28.15 117.65 27.25Q117.65 26.35 117.65 24.94Q117.65 23.52 117.65 21.92Q117.65 20.32 117.65 18.91Q117.65 17.50 117.65 16.60Q117.65 15.70 117.65 15.70Q117.65 15.70 117.65 15.70Q117.65 15.70 117.65 15.70Q117.65 15.70 117.65 15.70Q117.65 15.70 117.65 15.70Q117.65 15.70 118.64 15.70Q119.62 15.70 121.16 15.70Q122.70 15.70 124.45 15.70Q126.20 15.70 127.74 15.70Q129.27 15.70 130.26 15.70Q131.25 15.70 131.25 15.70Q131.25 15.70 131.25 15.70Q131.25 15.70 131.25 15.70Q131.25 15.70 131.25 15.70Q131.25 15.70 131.25 15.70Q131.25 15.70 131.25 15.70Q131.25 16.17 131.25 16.69Q131.25 17.20 131.25 17.70Q131.25 17.70 130.07 17.70Q128.90 17.70 127.17 17.70Q125.45 17.70 123.72 17.70Q122.00 17.70 120.82 17.70Q119.65 17.70 119.65 17.70Q119.65 17.70 119.65 17.70Q119.65 17.70 119.65 17.70Q119.65 17.70 119.65 17.70Q119.65 17.70 119.65 17.70Q119.65 17.70 119.65 17.70Q119.65 17.70 119.65 17.70Q119.65 17.70 119.65 17.70Q119.65 17.70 119.65 17.70Q119.65 17.70 119.65 17.70Q119.65 17.70 119.65 17.70Q119.65 17.70 119.65 17.70Q119.65 17.70 119.65 18.75Q119.65 19.80 119.65 21.36Q119.65 22.92 119.65 24.49Q119.65 26.05 119.65 27.10Q119.65 28.15 119.65 28.15L117.65 28.15M144.25 40.10L142.25 40.10Q142.25 40.10 142.25 38.11Q142.25 36.13 142.25 31.60Q142.25 31.60 142.25 31.48Q142.25 31.35 142.25 31.35Q142.25 31.35 142.25 31.23Q142.25 31.10 142.25 31.10Q142.25 26.18 142.25 23.89Q142.25 21.60 142.25 21.60L144.25 21.60L144.25 40.10M117.65 40.10L117.65 21.60L119.65 21.60Q119.65 21.60 119.65 23.89Q119.65 26.18 119.65 31.10Q119.65 31.10 119.65 31.23Q119.65 31.35 119.65 31.35Q119.65 31.35 119.65 31.48Q119.65 31.60 119.65 31.60Q119.65 36.13 119.65 38.11Q119.65 40.10 119.65 40.10L117.65 40.10M118.65 26.45L119.60 26.45Q119.60 26.45 119.60 26.63Q119.60 26.80 119.60 26.97Q119.60 27.15 119.60 27.15Q119.60 27.15 120.61 27Q121.62 26.85 123.11 26.64Q124.60 26.43 126.09 26.21Q127.57 26 128.59 25.85Q129.60 25.70 129.60 25.70Q129.60 25.70 129.61 25.80Q129.63 25.90 129.66 26.11Q129.70 26.32 129.75 26.65Q129.80 26.97 129.84 27.20Q129.88 27.43 129.89 27.54Q129.90 27.65 129.90 27.65Q129.90 27.65 128.86 27.80Q127.82 27.95 126.29 28.18Q124.75 28.40 123.21 28.63Q121.67 28.85 120.64 29Q119.60 29.15 119.60 29.15Q119.60 29.15 119.60 29.39Q119.60 29.63 119.60 29.86Q119.60 30.10 119.60 30.10L118.65 30.10L118.65 26.45M143.20 34.55L142.25 34.55Q142.25 34.55 142.25 34.38Q142.25 34.20 142.25 34.02Q142.25 33.85 142.25 33.85Q142.25 33.85 141.24 34Q140.22 34.15 138.74 34.36Q137.25 34.58 135.76 34.79Q134.27 35 133.26 35.15Q132.25 35.30 132.25 35.30Q132.25 35.30 132.24 35.20Q132.22 35.10 132.19 34.89Q132.15 34.67 132.10 34.35Q132.05 34.02 132.01 33.80Q131.97 33.58 131.96 33.46Q131.95 33.35 131.95 33.35Q131.95 33.35 132.99 33.20Q134.02 33.05 135.56 32.83Q137.10 32.60 138.64 32.38Q140.17 32.15 141.21 32Q142.25 31.85 142.25 31.85Q142.25 31.85 142.25 31.61Q142.25 31.38 142.25 31.14Q142.25 30.90 142.25 30.90L143.20 30.90L143.20 34.55ZM142.25 35.60L142.25 25.10L144.25 25.10Q144.25 25.10 144.25 25.89Q144.25 26.68 144.25 27.72Q144.25 28.77 144.25 29.56Q144.25 30.35 144.25 30.35Q144.25 30.35 144.25 30.35Q144.25 30.35 144.25 30.35Q144.25 30.35 144.25 30.35Q144.25 30.35 144.25 30.35Q144.25 30.35 144.25 31.14Q144.25 31.92 144.25 32.98Q144.25 34.02 144.25 34.81Q144.25 35.60 144.25 35.60L142.25 35.60M142.25 32.55L144.25 32.55Q144.25 32.55 144.25 33.60Q144.25 34.65 144.25 36.21Q144.25 37.77 144.25 39.34Q144.25 40.90 144.25 41.95Q144.25 43 144.25 43Q144.25 43 144.25 43Q144.25 43 144.25 43Q144.25 43 144.25 43Q144.25 43 144.25 43Q144.25 43 144.25 43Q144.25 43 144.25 43Q144.25 43 144.25 43Q144.25 43 144.25 43Q144.25 43 144.25 43Q144.25 43 144.25 43Q144.25 43 144.25 43Q144.25 43 145.43 43Q146.60 43 148.32 43Q150.05 43 151.78 43Q153.50 43 154.68 43Q155.85 43 155.85 43Q155.85 43.48 155.85 43.99Q155.85 44.50 155.85 45Q155.85 45 155.85 45Q155.85 45 155.85 45Q155.85 45 155.85 45Q155.85 45 155.85 45Q155.85 45 155.85 45Q155.85 45 154.86 45Q153.88 45 152.34 45Q150.80 45 149.05 45Q147.30 45 145.76 45Q144.22 45 143.24 45Q142.25 45 142.25 45Q142.25 45 142.25 45Q142.25 45 142.25 45Q142.25 45 142.25 45Q142.25 45 142.25 45Q142.25 45 142.25 44.10Q142.25 43.20 142.25 41.79Q142.25 40.38 142.25 38.77Q142.25 37.17 142.25 35.76Q142.25 34.35 142.25 33.45Q142.25 32.55 142.25 32.55M142.25 28.15Q142.25 28.15 142.25 27.25Q142.25 26.35 142.25 24.94Q142.25 23.52 142.25 21.92Q142.25 20.32 142.25 18.91Q142.25 17.50 142.25 16.60Q142.25 15.70 142.25 15.70Q142.25 15.70 142.25 15.70Q142.25 15.70 142.25 15.70Q142.25 15.70 142.25 15.70Q142.25 15.70 142.25 15.70Q142.25 15.70 143.24 15.70Q144.22 15.70 145.76 15.70Q147.30 15.70 149.05 15.70Q150.80 15.70 152.34 15.70Q153.88 15.70 154.86 15.70Q155.85 15.70 155.85 15.70Q155.85 15.70 155.85 15.70Q155.85 15.70 155.85 15.70Q155.85 15.70 155.85 15.70Q155.85 15.70 155.85 15.70Q155.85 15.70 155.85 15.70Q155.85 16.17 155.85 16.69Q155.85 17.20 155.85 17.70Q155.85 17.70 154.68 17.70Q153.50 17.70 151.78 17.70Q150.05 17.70 148.32 17.70Q146.60 17.70 145.43 17.70Q144.25 17.70 144.25 17.70Q144.25 17.70 144.25 17.70Q144.25 17.70 144.25 17.70Q144.25 17.70 144.25 17.70Q144.25 17.70 144.25 17.70Q144.25 17.70 144.25 17.70Q144.25 17.70 144.25 17.70Q144.25 17.70 144.25 17.70Q144.25 17.70 144.25 17.70Q144.25 17.70 144.25 17.70Q144.25 17.70 144.25 17.70Q144.25 17.70 144.25 17.70Q144.25 17.70 144.25 18.75Q144.25 19.80 144.25 21.36Q144.25 22.92 144.25 24.49Q144.25 26.05 144.25 27.10Q144.25 28.15 144.25 28.15L142.25 28.15M157.15 25.45Q157.15 25.35 157.16 25.31Q157.18 25.27 157.21 25.26Q157.25 25.25 157.35 25.25Q157.35 25.25 158.38 25.25Q159.40 25.25 160.93 25.25Q162.45 25.25 163.97 25.25Q165.50 25.25 166.53 25.25Q167.55 25.25 167.55 25.25Q167.55 25.25 167.55 25.25Q167.55 25.25 167.55 25.25Q167.55 25.25 167.55 25.25Q167.55 25.25 167.55 25.25Q167.55 25.25 167.55 25.25Q167.65 25.25 167.69 25.26Q167.72 25.27 167.74 25.31Q167.75 25.35 167.75 25.45Q167.75 25.45 167.75 25.61Q167.75 25.77 167.75 26.01Q167.75 26.25 167.75 26.49Q167.75 26.72 167.75 26.89Q167.75 27.05 167.75 27.05Q167.75 27.20 167.72 27.22Q167.70 27.25 167.55 27.25Q167.55 27.25 167.55 27.25Q167.55 27.25 167.55 27.25Q167.55 27.25 167.55 27.25Q167.55 27.25 167.55 27.25Q167.55 27.25 167.55 27.25Q167.55 27.25 166.53 27.25Q165.50 27.25 163.97 27.25Q162.45 27.25 160.93 27.25Q159.40 27.25 158.38 27.25Q157.35 27.25 157.35 27.25Q157.25 27.25 157.21 27.24Q157.18 27.22 157.16 27.19Q157.15 27.15 157.15 27.05Q157.15 27.05 157.15 26.65Q157.15 26.25 157.15 25.85Q157.15 25.45 157.15 25.45M157.15 35.75Q157.15 35.75 157.15 35.35Q157.15 34.95 157.15 34.55Q157.15 34.15 157.15 34.15Q157.15 34.05 157.16 34.01Q157.18 33.98 157.21 33.96Q157.25 33.95 157.35 33.95Q157.35 33.95 158.38 33.95Q159.40 33.95 160.93 33.95Q162.45 33.95 163.97 33.95Q165.50 33.95 166.53 33.95Q167.55 33.95 167.55 33.95Q167.55 33.95 167.55 33.95Q167.55 33.95 167.55 33.95Q167.55 33.95 167.55 33.95Q167.55 33.95 167.55 33.95Q167.55 33.95 167.55 33.95Q167.70 33.95 167.72 33.98Q167.75 34 167.75 34.15Q167.75 34.15 167.75 34.31Q167.75 34.48 167.75 34.71Q167.75 34.95 167.75 35.19Q167.75 35.42 167.75 35.59Q167.75 35.75 167.75 35.75Q167.75 35.85 167.74 35.89Q167.72 35.92 167.69 35.94Q167.65 35.95 167.55 35.95Q167.55 35.95 167.55 35.95Q167.55 35.95 167.55 35.95Q167.55 35.95 167.55 35.95Q167.55 35.95 167.55 35.95Q167.55 35.95 167.55 35.95Q167.55 35.95 166.53 35.95Q165.50 35.95 163.97 35.95Q162.45 35.95 160.93 35.95Q159.40 35.95 158.38 35.95Q157.35 35.95 157.35 35.95Q157.25 35.95 157.21 35.94Q157.18 35.92 157.16 35.89Q157.15 35.85 157.15 35.75M168.85 40.10L166.85 40.10Q166.85 40.10 166.85 38.11Q166.85 36.13 166.85 31.60Q166.85 31.60 166.85 31.48Q166.85 31.35 166.85 31.35Q166.85 31.35 166.85 31.23Q166.85 31.10 166.85 31.10Q166.85 26.18 166.85 23.89Q166.85 21.60 166.85 21.60L168.85 21.60L168.85 40.10M168.85 32.55Q168.85 32.55 168.85 33.45Q168.85 34.35 168.85 35.76Q168.85 37.17 168.85 38.77Q168.85 40.38 168.85 41.79Q168.85 43.20 168.85 44.10Q168.85 45 168.85 45Q168.85 45 168.85 45Q168.85 45 168.85 45Q168.85 45 168.85 45Q168.85 45 168.85 45Q168.85 45 167.86 45Q166.88 45 165.34 45Q163.80 45 162.05 45Q160.30 45 158.76 45Q157.22 45 156.24 45Q155.25 45 155.25 45Q155.25 45 155.25 45Q155.25 45 155.25 45Q155.25 45 155.25 45Q155.25 45 155.25 45Q155.25 45 155.25 45Q155.25 44.50 155.25 43.99Q155.25 43.48 155.25 43Q155.25 43 156.43 43Q157.60 43 159.32 43Q161.05 43 162.78 43Q164.50 43 165.68 43Q166.85 43 166.85 43Q166.85 43 166.85 43Q166.85 43 166.85 43Q166.85 43 166.85 43Q166.85 43 166.85 43Q166.85 43 166.85 43Q166.85 43 166.85 43Q166.85 43 166.85 43Q166.85 43 166.85 43Q166.85 43 166.85 43Q166.85 43 166.85 43Q166.85 43 166.85 43Q166.85 43 166.85 41.95Q166.85 40.90 166.85 39.34Q166.85 37.77 166.85 36.21Q166.85 34.65 166.85 33.60Q166.85 32.55 166.85 32.55L168.85 32.55M168.85 28.15L166.85 28.15Q166.85 28.15 166.85 27.10Q166.85 26.05 166.85 24.49Q166.85 22.92 166.85 21.36Q166.85 19.80 166.85 18.75Q166.85 17.70 166.85 17.70Q166.85 17.70 166.85 17.70Q166.85 17.70 166.85 17.70Q166.85 17.70 166.85 17.70Q166.85 17.70 166.85 17.70Q166.85 17.70 166.85 17.70Q166.85 17.70 166.85 17.70Q166.85 17.70 166.85 17.70Q166.85 17.70 166.85 17.70Q166.85 17.70 166.85 17.70Q166.85 17.70 166.85 17.70Q166.85 17.70 166.85 17.70Q166.85 17.70 165.68 17.70Q164.50 17.70 162.78 17.70Q161.05 17.70 159.32 17.70Q157.60 17.70 156.43 17.70Q155.25 17.70 155.25 17.70Q155.25 17.20 155.25 16.69Q155.25 16.17 155.25 15.70Q155.25 15.70 155.25 15.70Q155.25 15.70 155.25 15.70Q155.25 15.70 155.25 15.70Q155.25 15.70 155.25 15.70Q155.25 15.70 155.25 15.70Q155.25 15.70 156.24 15.70Q157.22 15.70 158.76 15.70Q160.30 15.70 162.05 15.70Q163.80 15.70 165.34 15.70Q166.88 15.70 167.86 15.70Q168.85 15.70 168.85 15.70Q168.85 15.70 168.85 15.70Q168.85 15.70 168.85 15.70Q168.85 15.70 168.85 15.70Q168.85 15.70 168.85 15.70Q168.85 15.70 168.85 16.60Q168.85 17.50 168.85 18.91Q168.85 20.32 168.85 21.92Q168.85 23.52 168.85 24.94Q168.85 26.35 168.85 27.25Q168.85 28.15 168.85 28.15ZM179.40 28.15L177.40 28.15L177.40 17.70Q177.40 17.70 177.40 17.70Q177.40 17.70 177.40 17.70Q177.40 17.70 176.75 17.70Q176.10 17.70 175.25 17.70Q174.40 17.70 173.75 17.70Q173.10 17.70 173.10 17.70Q173 17.32 173 16.70Q173 16.07 173.10 15.70Q173.10 15.70 173.10 15.70Q173.10 15.70 173.10 15.70Q173.10 15.70 173.10 15.70Q173.15 15.70 173.81 15.70Q174.47 15.70 175.40 15.70Q176.32 15.70 177.25 15.70Q178.17 15.70 178.79 15.70Q179.40 15.70 179.40 15.70Q179.40 15.70 179.40 15.70Q179.40 15.70 179.40 15.70Q179.40 15.70 179.40 15.70Q179.40 15.70 179.40 15.70Q179.40 15.70 179.40 16.65Q179.40 17.60 179.40 19.10Q179.40 20.60 179.40 22.31Q179.40 24.02 179.40 25.57Q179.40 27.13 179.40 28.15M166.85 28.15Q166.85 27.13 166.85 25.57Q166.85 24.02 166.85 22.31Q166.85 20.60 166.85 19.10Q166.85 17.60 166.85 16.65Q166.85 15.70 166.85 15.70Q166.85 15.70 166.85 15.70Q166.85 15.70 166.85 15.70Q166.85 15.70 166.85 15.70Q166.85 15.70 166.85 15.70Q166.85 15.70 167.46 15.70Q168.07 15.70 169 15.70Q169.92 15.70 170.85 15.70Q171.78 15.70 172.44 15.70Q173.10 15.70 173.15 15.70Q173.15 15.70 173.15 15.70Q173.15 15.70 173.15 15.70Q173.15 15.70 173.15 15.70Q173.28 16.07 173.28 16.70Q173.28 17.32 173.15 17.70Q173.15 17.70 172.50 17.70Q171.85 17.70 171 17.70Q170.15 17.70 169.50 17.70Q168.85 17.70 168.85 17.70Q168.85 17.70 168.85 17.70Q168.85 17.70 168.85 17.70L168.85 28.15L166.85 28.15M179.40 32.55Q179.40 33.58 179.40 35.13Q179.40 36.67 179.40 38.39Q179.40 40.10 179.40 41.60Q179.40 43.10 179.40 44.05Q179.40 45 179.40 45Q179.40 45 179.40 45Q179.40 45 179.40 45Q179.40 45 179.40 45Q179.40 45 179.40 45Q179.40 45 178.79 45Q178.17 45 177.25 45Q176.32 45 175.40 45Q174.47 45 173.81 45Q173.15 45 173.10 45Q173.10 45 173.10 45Q173.10 45 173.10 45Q173.10 45 173.10 45Q173 44.63 173 44Q173 43.38 173.10 43Q173.10 43 173.75 43Q174.40 43 175.25 43Q176.10 43 176.75 43Q177.40 43 177.40 43Q177.40 43 177.40 43Q177.40 43 177.40 43L177.40 32.55L179.40 32.55M166.85 32.55L168.85 32.55L168.85 43Q168.85 43 168.85 43Q168.85 43 168.85 43Q168.85 43 169.50 43Q170.15 43 171 43Q171.85 43 172.50 43Q173.15 43 173.15 43Q173.28 43.38 173.28 44Q173.28 44.63 173.15 45Q173.15 45 173.15 45Q173.15 45 173.15 45Q173.15 45 173.15 45Q173.10 45 172.44 45Q171.78 45 170.85 45Q169.92 45 169 45Q168.07 45 167.46 45Q166.85 45 166.85 45Q166.85 45 166.85 45Q166.85 45 166.85 45Q166.85 45 166.85 45Q166.85 45 166.85 45Q166.85 45 166.85 44.05Q166.85 43.10 166.85 41.60Q166.85 40.10 166.85 38.39Q166.85 36.67 166.85 35.13Q166.85 33.58 166.85 32.55M179.40 26.05Q179.40 26.63 179.40 27.65Q179.40 28.68 179.40 29.94Q179.40 31.20 179.40 32.46Q179.40 33.73 179.40 34.77Q179.40 35.83 179.40 36.45L178.85 36.45Q178.75 36.45 178.54 36.45Q178.32 36.45 178.06 36.45Q177.80 36.45 177.56 36.45Q177.32 36.45 177.20 36.45Q175.50 36.45 174.81 36.45Q174.13 36.45 173.86 36.45Q173.60 36.45 173.15 36.45Q173.15 36.45 173.15 36.16Q173.15 35.88 173.15 35.50Q173.15 35.13 173.15 34.84Q173.15 34.55 173.15 34.55Q173.15 34.55 173.90 34.55Q174.65 34.55 175.40 34.55Q176.15 34.55 176.15 34.55Q176.15 34.55 176.15 34.55Q176.15 34.55 176.15 34.55Q176.15 34.55 176.28 33.89Q176.40 33.23 176.59 32.26Q176.78 31.30 176.96 30.34Q177.15 29.38 177.28 28.71Q177.40 28.05 177.40 28.05Q177.40 28.05 177.40 28.05Q177.40 28.05 177.40 28.05Q177.40 28.05 177.40 27.75Q177.40 27.45 177.40 27.05Q177.40 26.65 177.40 26.35Q177.40 26.05 177.40 26.05L179.40 26.05M166.85 26.05L168.85 26.05Q168.85 26.05 168.85 26.35Q168.85 26.65 168.85 27.05Q168.85 27.45 168.85 27.75Q168.85 28.05 168.85 28.05Q168.85 28.05 168.85 28.05Q168.85 28.05 168.85 28.05Q168.85 28.05 168.85 28.05Q168.85 28.05 168.97 28.71Q169.10 29.38 169.29 30.34Q169.47 31.30 169.66 32.26Q169.85 33.23 169.97 33.89Q170.10 34.55 170.10 34.55Q170.10 34.55 170.10 34.55Q170.10 34.55 170.10 34.55Q170.10 34.55 170.56 34.55Q171.03 34.55 171.63 34.55Q172.22 34.55 172.69 34.55Q173.15 34.55 173.15 34.55Q173.15 34.55 173.15 34.84Q173.15 35.13 173.15 35.50Q173.15 35.88 173.15 36.16Q173.15 36.45 173.15 36.45Q172.88 36.45 172.56 36.45Q172.25 36.45 171.88 36.45Q171.50 36.45 171.06 36.45Q170.63 36.45 170.13 36.45Q169.63 36.45 169.05 36.45Q168.92 36.45 168.69 36.45Q168.45 36.45 168.19 36.45Q167.92 36.45 167.71 36.45Q167.50 36.45 167.40 36.45L166.85 36.45Q166.85 35.83 166.85 34.77Q166.85 33.73 166.85 32.46Q166.85 31.20 166.85 29.94Q166.85 28.68 166.85 27.65Q166.85 26.63 166.85 26.05Z"/></g></g></svg>